<svg xmlns="http://www.w3.org/2000/svg" viewBox="0 28.350000381469727 344.75 47.95000457763672" data-asc="1.32" width="344.75" height="47.95000457763672"><defs/><g fill="#ffffff"><g transform="translate(0, 0)"><path d="M0 49.15Q0 41.30 4.10 36.33Q8.20 31.35 15.65 31.20Q23.65 31.20 27.50 36.35Q31.35 41.50 31.35 48.80Q31.35 56.70 27.23 61.70Q23.10 66.70 15.65 66.70Q7.70 66.70 3.85 61.58Q0 56.45 0 49.15M6.75 49.10Q6.75 54.45 8.90 57.85Q11.05 61.25 15.60 61.25Q19.70 61.25 22.15 58.20Q24.60 55.15 24.60 48.80Q24.60 43.50 22.45 40.10Q20.30 36.70 15.75 36.70Q11.75 36.70 9.25 40.05Q6.75 43.40 6.75 49.10ZM51.55 48.30Q49.80 47.50 48.30 47.08Q46.80 46.65 45.10 46.65Q43.85 46.65 43.18 47.13Q42.50 47.60 42.50 48.45Q42.50 49.05 43.33 49.60Q44.15 50.15 46 50.80Q49.05 51.90 51.65 53.88Q54.25 55.85 54.25 59Q54.25 62.60 51.68 64.60Q49.10 66.60 44.15 66.60Q42.60 66.60 40.03 66Q37.45 65.40 35.75 64.10L37.70 59.40Q39.45 60.20 41.08 60.63Q42.70 61.05 44.05 61.05Q45.85 61.05 46.80 60.55Q47.75 60.05 47.75 59.25Q47.75 58.25 46.80 57.45Q45.85 56.65 43.80 56Q40.90 55.05 38.33 53.27Q35.75 51.50 35.75 48.50Q35.75 45.05 38.30 43.08Q40.85 41.10 45.20 41.10Q46.75 41.10 49.20 41.75Q51.65 42.40 53.50 43.65L51.55 48.30ZM70.45 46.65Q67.70 46.65 66.15 48.72Q64.60 50.80 64.60 53.90Q64.60 57.05 66.15 59.05Q67.70 61.05 70.45 61.05Q72.15 61.05 73.53 60.63Q74.90 60.20 76.65 59.40L78.50 64.10Q76.80 65.40 74.38 66Q71.95 66.60 70.40 66.60Q64.50 66.60 61.20 63.15Q57.90 59.70 57.90 53.90Q57.90 48.10 61.20 44.60Q64.50 41.10 70.40 41.10Q71.95 41.10 74.33 41.75Q76.70 42.40 78.50 43.65L76.65 48.30Q74.90 47.50 73.53 47.08Q72.15 46.65 70.45 46.65ZM88.05 58.75Q88.05 59.80 88.90 60.63Q89.75 61.45 91.15 61.45Q92.50 61.45 93.88 60.85Q95.25 60.25 96.50 59.05L96.50 55.35L91.60 55.35Q89.90 55.35 88.98 56.40Q88.05 57.45 88.05 58.75M91.25 66.60Q86.80 66.60 84.65 64.42Q82.50 62.25 82.50 58.75Q82.50 55 85.05 53Q87.60 51 91.70 51L96.45 51Q96.40 49.15 95.38 48.13Q94.35 47.10 92.55 47.10Q90.85 47.10 88.85 47.58Q86.85 48.05 85.50 48.70L83.75 43.30Q85.15 42.35 88.03 41.72Q90.90 41.10 92.45 41.10Q96.80 41.10 99.90 43.63Q103.00 46.15 103.00 50.05L103.00 66L99.65 66L98.05 63.95Q96.70 65 94.88 65.80Q93.05 66.60 91.25 66.60ZM122.30 41.75L123.60 46.95Q121.95 46.95 119.78 47.90Q117.60 48.85 115.50 50.70L115.50 66L109 66L109 41.75L112.40 41.75L114.55 45.30Q116.05 44 118.20 42.88Q120.35 41.75 122.30 41.75ZM154.40 55.70L146.25 45.25L146.25 66L139.80 66L139.80 32L143.90 32L155.40 47.70L165.85 32L169.80 32L169.80 66L163.25 66L163.25 46.40L156.90 55.35L154.40 55.70ZM188.25 66.60Q182.50 66.60 179.28 63.13Q176.05 59.65 176.05 53.80Q176.05 48 179.43 44.55Q182.80 41.10 188.65 41.10Q194.70 41.10 198.03 44.67Q201.35 48.25 201.35 54.05Q201.35 59.85 197.75 63.23Q194.15 66.60 188.25 66.60M194.65 54.05Q194.65 50.60 193.13 48.63Q191.60 46.65 188.80 46.65Q185.95 46.65 184.35 48.40Q182.75 50.15 182.75 53.75Q182.75 57.35 184.13 59.20Q185.50 61.05 188.35 61.05Q191.15 61.05 192.90 59.38Q194.65 57.70 194.65 54.05ZM218.30 46.35Q214.90 46.35 213.58 48.75Q212.25 51.15 212.25 53.70Q212.25 56.55 213.45 58.80Q214.65 61.05 218.30 61.05Q219.45 61.05 220.73 60.52Q222.00 60 223.10 59.30L223.10 48.10Q222.00 47.35 220.73 46.85Q219.45 46.35 218.30 46.35M229.65 41.75L229.65 65.95Q229.65 70.35 226.68 73.33Q223.70 76.30 217.25 76.30Q215.70 76.30 212.75 75.58Q209.80 74.85 207.85 73.55L209.80 68.95Q212.05 70.05 213.65 70.55Q215.25 71.05 217.10 71.05Q220.00 71.05 221.55 69.67Q223.10 68.30 223.10 65.90L223.10 64.65Q221.55 65.55 219.80 66.08Q218.05 66.60 216.55 66.60Q211.25 66.60 208.40 62.90Q205.55 59.20 205.55 53.70Q205.55 48.20 208.58 44.50Q211.60 40.80 216.85 40.80Q218.65 40.80 220.90 41.58Q223.15 42.35 224.75 43.75L226.25 41.75L229.65 41.75ZM247.35 66.60Q241.60 66.60 238.38 63.13Q235.15 59.65 235.15 53.80Q235.15 48 238.53 44.55Q241.90 41.10 247.75 41.10Q253.80 41.10 257.13 44.67Q260.45 48.25 260.45 54.05Q260.45 59.85 256.85 63.23Q253.25 66.60 247.35 66.60M253.75 54.05Q253.75 50.60 252.23 48.63Q250.70 46.65 247.90 46.65Q245.05 46.65 243.45 48.40Q241.85 50.15 241.85 53.75Q241.85 57.35 243.23 59.20Q244.60 61.05 247.45 61.05Q250.25 61.05 252 59.38Q253.75 57.70 253.75 54.05ZM272.45 30.70L272.45 66L266 66L266 31.25L272.45 30.70ZM285.75 30.70L285.75 66L279.30 66L279.30 31.25L285.75 30.70ZM302.95 28.35L309.60 28.35L304.90 36.55L299.95 36.55L302.95 28.35M303.45 66.60Q297.70 66.60 294.48 63.13Q291.25 59.65 291.25 53.80Q291.25 48 294.63 44.55Q298.00 41.10 303.85 41.10Q309.90 41.10 313.23 44.67Q316.55 48.25 316.55 54.05Q316.55 59.85 312.95 63.23Q309.35 66.60 303.45 66.60M309.85 54.05Q309.85 50.60 308.33 48.63Q306.80 46.65 304.00 46.65Q301.15 46.65 299.55 48.40Q297.95 50.15 297.95 53.75Q297.95 57.35 299.33 59.20Q300.70 61.05 303.55 61.05Q306.35 61.05 308.10 59.38Q309.85 57.70 309.85 54.05ZM327.10 44.35Q328.75 42.70 331.23 41.75Q333.70 40.80 335.65 40.80Q340.60 40.80 342.68 43.70Q344.75 46.60 344.75 50.80L344.75 66L338.25 66L338.25 51.10Q338.25 48.80 337.15 47.58Q336.05 46.35 333.95 46.35Q332.55 46.35 331.03 47.08Q329.50 47.80 328.25 48.75L328.25 66L321.75 66L321.75 41.75L325.15 41.75L327.10 44.35Z"/></g></g></svg>