<?xml version="1.0" encoding="UTF-8"?>
<svg id="Capa_1" data-name="Capa 1" xmlns="http://www.w3.org/2000/svg" xmlns:xlink="http://www.w3.org/1999/xlink" viewBox="0 0 178.18 44.77">
  <defs>
    <style>
      .cls-1 {
        fill: none;
      }

      .cls-2 {
        clip-path: url(#clippath);
      }

      .cls-3 {
        fill: #fff;
      }

      .cls-4 {
        opacity: .4;
      }
    </style>
    <clipPath id="clippath">
      <rect class="cls-1" x="4.43" y="23.64" width="28.3" height="1.85"/>
    </clipPath>
  </defs>
  <path class="cls-3" d="M66.48,29.66c-.12,0-.22-.04-.28-.12-.07-.08-.11-.18-.12-.29L63.63,1.63c-.02-.12,.02-.24,.11-.35,.09-.11,.23-.16,.42-.16h1c.34,0,.62,.1,.85,.3,.22,.2,.35,.44,.38,.72l1.24,21.42,1.26-21.42c.03-.29,.15-.53,.38-.72,.22-.2,.51-.3,.85-.3h1c.19,0,.33,.05,.42,.16,.09,.11,.13,.22,.11,.35l-2.45,27.62c-.01,.11-.06,.2-.12,.29s-.16,.12-.29,.12h-2.3Z"/>
  <path class="cls-3" d="M81.34,2.16c0-.31,.11-.56,.33-.75,.22-.19,.5-.29,.86-.29h1.14c.14,0,.24,.04,.31,.12,.07,.08,.1,.18,.1,.31V28.92c0,.2-.07,.38-.21,.52-.14,.14-.32,.21-.52,.21h-1.27c-.2,0-.38-.07-.52-.21-.14-.14-.21-.32-.21-.52V2.16Z"/>
  <path class="cls-3" d="M101.73,5.28c.09-.94,.21-1.68,.35-2.23,.13-.55,.29-.97,.45-1.25,.16-.29,.34-.47,.53-.55,.19-.08,.38-.12,.57-.12h1.55c.14,0,.24,.04,.3,.12,.07,.08,.1,.18,.1,.31V29.23c0,.12-.03,.22-.1,.3-.07,.08-.17,.12-.3,.12h-1.14c-.4,0-.69-.11-.9-.34-.2-.22-.3-.51-.29-.87l.61-19.98-2.1,20.16c-.03,.29-.18,.53-.47,.72-.29,.2-.6,.3-.94,.3h-.04c-.34,0-.65-.1-.94-.3s-.44-.44-.47-.72l-2.12-20.2,.61,20.02c.01,.35-.08,.64-.29,.87-.2,.22-.5,.34-.9,.34h-1.14c-.14,0-.24-.04-.31-.12-.07-.08-.1-.18-.1-.3V1.55c0-.12,.03-.22,.1-.31,.07-.08,.17-.12,.31-.12h1.39c.19,0,.39,.04,.6,.11,.21,.08,.41,.25,.6,.54,.19,.28,.36,.7,.52,1.25,.16,.55,.28,1.3,.38,2.25l1.77,17.25,1.79-17.25Z"/>
  <path class="cls-3" d="M120.85,1.12c.12,0,.22,.04,.29,.12,.07,.08,.11,.18,.12,.29l2.45,27.62c.01,.12-.02,.24-.11,.35-.09,.11-.23,.16-.42,.16h-1c-.34,0-.62-.1-.85-.3-.22-.2-.35-.44-.38-.72l-.22-3.89h-2.06l-.22,3.89c-.03,.28-.15,.53-.38,.72-.22,.2-.51,.3-.85,.3h-1c-.19,0-.33-.05-.42-.16-.09-.11-.13-.22-.11-.35l2.45-27.62c.01-.11,.05-.2,.12-.29,.07-.08,.16-.12,.29-.12h2.3Zm-2.06,21.35h1.79l-.9-15.25-.9,15.25Z"/>
  <path class="cls-3" d="M137.36,1.12c.58,0,1.11,.08,1.59,.26,.48,.17,.88,.4,1.22,.7,.34,.3,.6,.67,.78,1.1,.18,.44,.28,.92,.28,1.45V14.29c0,.6-.12,1.09-.36,1.47-.24,.38-.57,.69-.99,.92,.42,.23,.75,.53,.99,.91,.24,.38,.36,.85,.36,1.44v10.21c0,.12-.03,.22-.1,.31-.07,.08-.17,.12-.31,.12h-1.14c-.39,0-.69-.11-.89-.34-.2-.22-.3-.51-.3-.86v-9.44c0-.37-.09-.66-.28-.89-.18-.22-.49-.33-.91-.33h-1.18v10.66c0,.35-.1,.64-.3,.86-.2,.22-.49,.34-.89,.34h-1.14c-.14,0-.24-.04-.31-.12-.07-.08-.1-.18-.1-.31V1.55c0-.12,.03-.22,.1-.31,.07-.08,.17-.12,.31-.12h3.55Zm-1.22,2.28V15.51h1.18c.41,0,.71-.12,.9-.35,.19-.23,.29-.52,.29-.88V4.62c0-.35-.1-.65-.3-.88-.2-.23-.49-.35-.89-.35h-1.18Z"/>
  <path class="cls-3" d="M157.71,10.96c-.39,0-.69-.11-.89-.34-.2-.22-.3-.51-.3-.87V4.3c0-.37-.1-.66-.3-.89s-.49-.34-.89-.34-.71,.11-.9,.34c-.19,.22-.29,.52-.29,.89,0,1.24,.07,2.35,.21,3.34,.14,.99,.34,1.91,.58,2.75,.24,.84,.52,1.64,.83,2.39,.3,.75,.61,1.49,.93,2.23,.31,.74,.62,1.5,.93,2.27,.31,.78,.58,1.62,.83,2.53s.44,1.91,.58,3c.14,1.09,.22,2.31,.22,3.67,0,.54-.09,1.03-.28,1.46-.18,.43-.45,.8-.8,1.1-.35,.31-.76,.54-1.24,.7-.48,.16-1.02,.24-1.6,.24-1.24,0-2.2-.31-2.88-.94-.69-.63-1.03-1.48-1.03-2.57v-6.24c0-.12,.03-.22,.1-.3,.07-.08,.17-.12,.31-.12h1.14c.39,0,.69,.11,.89,.34,.2,.22,.3,.51,.3,.87v5.46c0,.37,.1,.66,.3,.89,.2,.22,.49,.34,.89,.34s.71-.11,.9-.34,.29-.52,.29-.89c0-1.74-.13-3.26-.38-4.57-.25-1.3-.57-2.49-.95-3.56-.38-1.07-.79-2.08-1.22-3.04-.44-.96-.84-1.97-1.22-3.03-.38-1.06-.7-2.23-.95-3.51-.25-1.28-.38-2.77-.38-4.48,0-.54,.09-1.03,.27-1.46,.18-.43,.45-.8,.8-1.1,.35-.31,.76-.54,1.23-.7,.48-.16,1.01-.24,1.61-.24,1.24,0,2.2,.31,2.88,.94,.69,.63,1.03,1.48,1.03,2.57v6.24c0,.12-.03,.22-.1,.31-.07,.08-.17,.12-.31,.12h-1.14Z"/>
  <path class="cls-3" d="M174.11,1.12c.12,0,.22,.04,.29,.12,.07,.08,.11,.18,.12,.29l2.45,27.62c.01,.12-.02,.24-.11,.35-.09,.11-.23,.16-.42,.16h-1c-.34,0-.62-.1-.85-.3-.22-.2-.35-.44-.38-.72l-.22-3.89h-2.06l-.22,3.89c-.03,.28-.15,.53-.38,.72-.22,.2-.51,.3-.85,.3h-1c-.19,0-.33-.05-.42-.16-.09-.11-.13-.22-.11-.35l2.45-27.62c.01-.11,.05-.2,.12-.29,.07-.08,.16-.12,.29-.12h2.3Zm-2.06,21.35h1.79l-.9-15.25-.9,15.25Z"/>
  <path class="cls-3" d="M83.95,36.15v.72h-.72v-.72c0-.4-.14-.74-.42-1.02-.28-.28-.62-.42-1.02-.42s-.74,.14-1.02,.42c-.28,.28-.42,.62-.42,1.02v6.46c0,.4,.14,.74,.42,1.01,.28,.28,.62,.42,1.02,.42s.74-.14,1.02-.42c.28-.28,.42-.62,.42-1.01v-.72h.72v.72c0,.59-.21,1.1-.63,1.52s-.93,.63-1.52,.63-1.1-.21-1.52-.63c-.42-.42-.63-.93-.63-1.52v-6.46c0-.59,.21-1.1,.63-1.52,.42-.42,.93-.63,1.52-.63s1.1,.21,1.52,.63c.42,.42,.63,.93,.63,1.52"/>
  <path class="cls-3" d="M95.43,42.61c0,.59-.21,1.1-.63,1.52-.42,.42-.93,.63-1.52,.63s-1.1-.21-1.52-.63c-.42-.42-.63-.93-.63-1.52v-3.59c0-.59,.21-1.1,.63-1.52,.42-.42,.93-.63,1.52-.63s1.1,.21,1.52,.63c.42,.42,.63,.93,.63,1.52v3.59Zm-3.59,0c0,.4,.14,.74,.42,1.02,.28,.28,.62,.42,1.02,.42s.74-.14,1.01-.42c.28-.28,.42-.62,.42-1.02v-3.59c0-.4-.14-.74-.42-1.01-.28-.28-.62-.42-1.01-.42s-.74,.14-1.02,.42c-.28,.28-.42,.62-.42,1.01v3.59Z"/>
  <rect class="cls-3" x="102.6" y="34" width=".72" height="10.77"/>
  <path class="cls-3" d="M114.79,42.61c0,.59-.21,1.1-.63,1.52-.42,.42-.93,.63-1.52,.63s-1.1-.21-1.52-.63c-.42-.42-.63-.93-.63-1.52v-3.59c0-.59,.21-1.1,.63-1.52,.42-.42,.93-.63,1.52-.63s1.1,.21,1.52,.63c.42,.42,.63,.93,.63,1.52v3.59Zm-3.59,0c0,.4,.14,.74,.42,1.02,.28,.28,.62,.42,1.02,.42s.74-.14,1.01-.42c.28-.28,.42-.62,.42-1.02v-3.59c0-.4-.14-.74-.42-1.01-.28-.28-.62-.42-1.01-.42s-.74,.14-1.02,.42c-.28,.28-.42,.62-.42,1.01v3.59Z"/>
  <path class="cls-3" d="M122.68,39.03v5.74h-.72v-7.9h.72v.55c.4-.37,.88-.55,1.44-.55,.59,0,1.1,.21,1.52,.63,.1,.11,.2,.22,.27,.33,.08-.12,.17-.23,.27-.33,.42-.42,.93-.63,1.52-.63s1.1,.21,1.52,.63c.42,.42,.63,.93,.63,1.52v5.74h-.72v-5.74c0-.4-.14-.74-.42-1.02-.28-.28-.62-.42-1.02-.42s-.74,.14-1.01,.42c-.28,.28-.42,.62-.42,1.02v5.74h-.72v-5.74c0-.4-.14-.74-.42-1.02-.28-.28-.62-.42-1.01-.42s-.74,.14-1.02,.42c-.28,.28-.42,.62-.42,1.02"/>
  <path class="cls-3" d="M137.03,34h.72v3.42c.4-.37,.88-.55,1.44-.55,.59,0,1.1,.21,1.52,.63,.42,.42,.63,.93,.63,1.52v3.59c0,.59-.21,1.1-.63,1.52-.42,.42-.93,.63-1.52,.63-.56,0-1.03-.18-1.44-.55v.55h-.72v-10.77Zm.72,5.02v3.59c0,.4,.14,.74,.42,1.01,.28,.28,.62,.42,1.02,.42s.74-.14,1.01-.42c.28-.28,.42-.62,.42-1.01v-3.59c0-.4-.14-.74-.42-1.02-.28-.28-.62-.42-1.01-.42s-.74,.14-1.02,.42c-.28,.28-.42,.62-.42,1.02"/>
  <path class="cls-3" d="M148.5,34.72h.72v.72h-.72v-.72Zm.72,10.05h-.72v-7.9h.72v7.9Z"/>
  <path class="cls-3" d="M159.98,37.42v-.55h.72v7.9h-.72v-.55c-.4,.37-.88,.55-1.44,.55-.59,0-1.1-.21-1.52-.63-.42-.42-.63-.93-.63-1.52v-3.59c0-.59,.21-1.1,.63-1.52,.42-.42,.93-.63,1.52-.63,.56,0,1.03,.18,1.44,.55m0,1.6c0-.4-.14-.74-.42-1.02-.28-.28-.62-.42-1.02-.42s-.74,.14-1.01,.42c-.28,.28-.42,.62-.42,1.02v3.59c0,.4,.14,.74,.42,1.01,.28,.28,.62,.42,1.01,.42s.74-.14,1.02-.42c.28-.28,.42-.62,.42-1.01v-3.59Z"/>
  <path class="cls-3" d="M177.95,40.91h-14.69c-.13,0-.23-.1-.23-.23s.1-.23,.23-.23h14.69c.12,0,.23,.1,.23,.23s-.1,.23-.23,.23"/>
  <path class="cls-3" d="M77.33,40.45h-14.69c-.13,0-.23,.1-.23,.23s.1,.23,.23,.23h14.69c.13,0,.23-.1,.23-.23s-.1-.23-.23-.23"/>
  <rect class="cls-3" x="27.98" y="21.12" width="1.14" height="4.04"/>
  <rect class="cls-3" x="20.18" y="21.12" width="1.24" height="4.04"/>
  <rect class="cls-3" x="21.88" y="21.12" width="5.65" height="4.04"/>
  <path class="cls-3" d="M15,7.17c0,1.11-.87,2.01-1.95,2.01s-1.95-.9-1.95-2.01,.87-2.01,1.95-2.01,1.95,.9,1.95,2.01"/>
  <rect class="cls-3" x="21.42" y="25.49" width=".45" height="0"/>
  <rect class="cls-3" x="27.53" y="25.49" width=".45" height="0"/>
  <polygon class="cls-3" points="27.53 25.49 21.88 25.49 21.42 25.49 20.18 25.49 20.18 25.72 29.13 25.72 29.13 25.49 27.98 25.49 27.53 25.49"/>
  <rect class="cls-3" x="21.88" y="18.16" width="5.65" height="2.1"/>
  <rect class="cls-3" x="27.98" y="18.16" width="1.12" height="2.1"/>
  <rect class="cls-3" x="20.16" y="18.16" width="1.27" height="2.1"/>
  <polygon class="cls-3" points="19.34 33.64 19.35 33.64 19.35 30.93 19.34 27.06 19.34 33.64"/>
  <polygon class="cls-3" points="17.83 27.17 17.82 27.17 17.82 33.84 19.34 33.84 19.34 33.64 17.83 33.64 17.83 27.17"/>
  <polygon class="cls-3" points="32.93 15.76 32.93 14.2 16.42 14.2 16.42 15.34 13.37 12.54 31.71 12.54 31.71 10.77 8.83 10.77 16.42 17.71 16.42 18.69 16.49 25.5 5.04 25.5 5.04 27.06 16.5 27.06 17.82 27.06 17.82 27.17 17.83 27.17 17.83 33.64 19.34 33.64 19.34 27.06 20.16 27.06 22.57 27.06 24.09 27.06 29.87 27.06 29.87 33.68 31.39 33.68 31.39 27.06 32.93 27.06 32.93 25.5 20.16 25.5 18.04 25.5 17.94 18.95 17.94 15.76 32.93 15.76"/>
  <g class="cls-4">
    <g class="cls-2">
      <rect class="cls-3" x="4.43" y="23.64" width="28.3" height="1.85"/>
    </g>
  </g>
  <path class="cls-3" d="M45.95,0c-5.4,0-9.79,4.51-9.79,10.06v10.48c-.79,1.04-1.48,2.14-2.08,3.31v-6.24C34.08,7.91,26.39,0,16.93,0H0V18.05c0,9.72,7.69,17.62,17.15,17.62h14.46v6.89c0,.18,.14,.32,.31,.32,1.19,0,2.15-.99,2.15-2.21v-4.99h0v-2.33c.17-4.21,1.63-8.18,4.18-11.44h9.42c5.4,0,9.79-4.52,9.79-10.06V0h-11.52Zm-14.34,33.13h-14.46c-8.09,0-14.68-6.77-14.68-15.08V2.54h14.46c8.09,0,14.68,6.77,14.68,15.08v15.51ZM55,11.84c0,4.15-3.28,7.53-7.32,7.53h-7.12l2.17-2.25h6.19c.68,0,1.24-.57,1.24-1.27s-.55-1.27-1.24-1.27h-3.75l2.16-2.24h3.78c.68,0,1.24-.57,1.24-1.27s-.55-1.27-1.24-1.27h-1.33l2.15-2.23c.48-.5,.48-1.3,0-1.79-.48-.49-1.27-.49-1.75,0l-2.46,2.55v-1.98c0-.7-.55-1.27-1.23-1.27s-1.24,.57-1.24,1.27v4.54l-1.86,1.93v-3.84c0-.7-.55-1.27-1.24-1.27s-1.24,.57-1.24,1.27v6.41l-2.29,2.38v-7.7c0-4.15,3.28-7.52,7.32-7.52h9.05V11.84Z"/>
</svg>